<svg width="317" height="306" viewBox="0 0 317 306" fill="none" xmlns="http://www.w3.org/2000/svg">
<path d="M160.751 294.788C244.324 294.788 312.074 261.308 312.074 220.008C312.074 178.708 244.324 145.228 160.751 145.228C77.1773 145.228 9.42758 178.708 9.42758 220.008C9.42758 261.308 77.1773 294.788 160.751 294.788Z" fill="#FAFAFA"/>
<path d="M247.019 268.282C269.789 268.282 288.248 257.276 288.248 243.698C288.248 230.121 269.789 219.114 247.019 219.114C224.249 219.114 205.79 230.121 205.79 243.698C205.79 257.276 224.249 268.282 247.019 268.282Z" fill="#E0E0E0"/>
<path d="M149.148 199.585L122.73 184.867C122.291 184.65 121.805 184.537 121.313 184.537C120.82 184.537 120.334 184.65 119.896 184.867L32.334 233.674C32.1624 233.729 32.0132 233.835 31.9074 233.977C31.8017 234.118 31.7448 234.289 31.7448 234.463C31.7448 234.638 31.8017 234.808 31.9074 234.95C32.0132 235.092 32.1624 235.197 32.334 235.253L58.7464 249.978C59.1864 250.19 59.6715 250.3 60.1634 250.3C60.6553 250.3 61.1404 250.19 61.5804 249.978L69.3849 245.626L141.338 205.632L149.155 201.195C149.332 201.14 149.486 201.032 149.595 200.887C149.704 200.742 149.762 200.567 149.761 200.388C149.761 200.209 149.701 200.034 149.591 199.89C149.48 199.746 149.326 199.639 149.148 199.585Z" fill="#E0E0E0"/>
<path d="M267.909 234.555L263.826 232.462C263.826 232.462 264.226 213.221 268.36 198.319C272.595 183.061 284.92 166.207 296.566 172.523C308.213 178.839 287.513 191.819 281.287 204.347C275.061 216.874 267.909 234.555 267.909 234.555Z" fill="#3A5A40"/>
<path opacity="0.15" d="M267.909 234.555L263.826 232.462C263.826 232.462 264.226 213.221 268.36 198.319C272.595 183.061 284.92 166.207 296.566 172.523C308.213 178.839 287.513 191.819 281.287 204.347C275.061 216.874 267.909 234.555 267.909 234.555Z" fill="black"/>
<path d="M267.371 229.99C267.316 229.988 267.263 229.976 267.214 229.955C267.164 229.933 267.12 229.903 267.083 229.864C267.046 229.826 267.017 229.782 266.998 229.733C266.978 229.684 266.969 229.632 266.971 229.58C267.846 199.72 281.369 181.489 292.686 174.952C292.78 174.898 292.893 174.882 292.999 174.908C293.106 174.934 293.197 174.999 293.254 175.09C293.31 175.181 293.327 175.29 293.3 175.393C293.273 175.495 293.205 175.584 293.111 175.638C281.972 182.07 268.664 200.063 267.795 229.598C267.794 229.651 267.783 229.703 267.761 229.751C267.739 229.8 267.707 229.843 267.668 229.88C267.628 229.916 267.582 229.945 267.531 229.963C267.48 229.982 267.425 229.991 267.371 229.99Z" fill="white"/>
<path d="M269.754 235.473L266.109 233.668C266.109 233.668 266.559 224.218 274.059 211.905C280.716 200.969 294.208 192.401 299.876 195.454C304.276 197.817 305.29 202.994 301.074 206.44C296.858 209.885 277.394 217.113 269.754 235.473Z" fill="#3A5A40"/>
<path d="M268.29 232.456C268.924 232.578 269.146 231.067 269.273 230.681C269.513 229.959 269.767 229.249 270.046 228.539C270.592 227.159 271.212 225.806 271.904 224.488C273.235 221.952 274.794 219.533 276.564 217.26C278.217 215.132 280.02 213.116 281.959 211.226C283.709 209.526 285.55 207.916 287.475 206.403C289.085 205.13 290.759 203.924 292.477 202.792C293.745 201.96 295.013 201.164 296.338 200.418C297.029 200.026 297.72 199.641 298.437 199.286L298.639 199.188C298.753 199.134 298.84 199.039 298.881 198.924C298.922 198.808 298.914 198.682 298.858 198.573C298.803 198.463 298.704 198.379 298.585 198.34C298.465 198.3 298.334 198.308 298.221 198.361C297.777 198.57 297.352 198.802 296.953 199.035C295.837 199.647 294.747 200.259 293.675 200.944C292.086 201.936 290.535 202.984 289.022 204.09C287.145 205.461 285.342 206.915 283.614 208.453C281.643 210.195 279.788 212.055 278.06 214.023C276.186 216.143 274.49 218.405 272.988 220.785C271.39 223.304 270.052 225.969 268.994 228.741C268.795 229.276 268.605 229.808 268.423 230.338C268.156 230.868 267.995 231.441 267.947 232.028C267.955 232.121 267.99 232.21 268.047 232.286C268.104 232.361 268.181 232.42 268.271 232.456H268.29Z" fill="white"/>
<path d="M61.3966 217.774C61.3966 217.774 61.498 205.773 56.6099 195.84C51.7217 185.907 44.0757 179.187 36.3219 177.651C28.568 176.115 21.4165 182.296 29.1513 188.055C36.8861 193.814 51.0941 200.479 55.6335 219.133L61.3966 217.774Z" fill="#3A5A40"/>
<path opacity="0.15" d="M61.3966 217.774C61.3966 217.774 61.498 205.773 56.6099 195.84C51.7217 185.907 44.0757 179.187 36.3219 177.651C28.568 176.115 21.4165 182.296 29.1513 188.055C36.8861 193.814 51.0941 200.479 55.6335 219.133L61.3966 217.774Z" fill="black"/>
<path d="M58.1632 215.699C58.0823 215.7 58.0044 215.67 57.9455 215.616C57.8866 215.563 57.851 215.49 57.8462 215.412C56.6543 196.201 40.259 183.71 32.1565 181.58C32.076 181.559 32.0076 181.508 31.9661 181.438C31.9245 181.368 31.9132 181.285 31.9346 181.207C31.9569 181.128 32.0107 181.06 32.0843 181.019C32.1578 180.978 32.2453 180.966 32.3277 180.987C40.5697 183.159 57.2692 195.858 58.4802 215.375C58.4822 215.455 58.4525 215.534 58.3973 215.594C58.342 215.654 58.2651 215.692 58.1822 215.699H58.1632Z" fill="white"/>
<path d="M62.3983 234.249C63.9689 232.336 65.0229 230.076 65.4655 227.673C65.9081 225.269 65.7256 222.798 64.9343 220.479C64.4741 219.079 63.7378 217.778 62.766 216.648C61.9862 215.761 60.864 215.302 59.9511 214.561C57.9857 212.988 55.7033 211.317 54.9932 208.82C54.4226 206.831 54.543 204.947 53.4018 203.08C52.7294 201.911 51.6587 201.003 50.3713 200.51C48.6912 199.898 46.8399 200.301 45.0647 200.51C42.5287 200.785 40.6267 199.94 38.4331 198.814C36.0176 197.59 33.1963 196.623 30.5778 197.376C29.7263 197.62 28.9372 198.033 28.2618 198.59C27.5864 199.147 27.0397 199.834 26.6571 200.608C26.2746 201.382 26.0647 202.224 26.0411 203.081C26.0176 203.939 26.1808 204.791 26.5202 205.583C27.1035 206.954 28.1813 208.068 28.9738 209.341C29.7663 210.614 30.1848 212.07 29.6078 213.459C29.164 214.488 28.3398 215.295 28.0101 216.342C27.0718 219.096 27.598 221.544 30.432 222.964C33.3928 224.427 38.04 223.325 39.5236 226.917C40.0815 228.282 40.1005 229.794 40.4048 231.232C41.0295 234.126 42.7728 236.682 45.2803 238.38C48.6849 240.663 53.3067 240.106 56.8381 238.515C59.0077 237.526 60.9107 236.066 62.3983 234.249Z" fill="#3A5A40"/>
<path d="M35.7069 216.868C35.7762 216.88 35.8474 216.869 35.9098 216.838C38.4069 215.906 41.0867 215.519 43.7569 215.706C46.4272 215.892 49.0216 216.646 51.354 217.915C51.4339 217.956 51.5275 217.965 51.6142 217.94C51.701 217.915 51.7738 217.857 51.8168 217.78C51.8391 217.743 51.8533 217.701 51.8587 217.658C51.864 217.615 51.8604 217.571 51.848 217.53C51.8355 217.488 51.8146 217.449 51.7864 217.416C51.7582 217.382 51.7233 217.354 51.6837 217.333C49.2604 216.02 46.5658 215.241 43.7934 215.052C41.021 214.864 38.2398 215.271 35.6498 216.244C35.5889 216.276 35.5396 216.326 35.5085 216.386C35.4773 216.446 35.4658 216.513 35.4754 216.58C35.4851 216.646 35.5154 216.708 35.5624 216.757C35.6094 216.807 35.6709 216.841 35.7386 216.856L35.7069 216.868Z" fill="white"/>
<path d="M57.8462 234.353C57.7631 234.355 57.6828 234.325 57.6223 234.27C57.5618 234.215 57.5261 234.139 57.5228 234.059C56.9332 220.228 42.5477 205.601 32.9046 201.623C32.8657 201.608 32.8303 201.585 32.8005 201.557C32.7708 201.528 32.7472 201.494 32.7313 201.456C32.7154 201.418 32.7074 201.378 32.7077 201.338C32.7081 201.297 32.7168 201.257 32.7334 201.219C32.7681 201.144 32.8323 201.085 32.9118 201.055C32.9914 201.026 33.08 201.027 33.1582 201.06C42.9535 205.112 57.5609 219.983 58.1632 234.047C58.1649 234.088 58.1582 234.129 58.1435 234.168C58.1288 234.206 58.1064 234.241 58.0775 234.272C58.0486 234.302 58.0139 234.326 57.9753 234.343C57.9367 234.36 57.895 234.37 57.8525 234.372L57.8462 234.353Z" fill="white"/>
<path d="M137.248 36.72L65.4922 76.6959C64.7816 77.1436 64.1911 77.7476 63.769 78.4582C63.3469 79.1688 63.1053 79.9659 63.064 80.784V243.9C63.064 245.394 64.1544 246 65.4922 245.247L137.248 205.259C137.954 204.812 138.542 204.211 138.963 203.506C139.385 202.8 139.629 202.008 139.677 201.195V38.0542C139.677 36.5609 138.586 35.9489 137.248 36.72ZM136.183 189.108C136.183 190.387 135.251 191.201 134.104 191.838L68.3959 228.472C67.2547 229.084 66.3164 228.594 66.3164 227.309V91.6593C66.3166 90.9579 66.5084 90.2689 66.8724 89.6619C67.2364 89.0548 67.7597 88.5511 68.3896 88.2015L134.097 51.561C134.308 51.4428 134.548 51.3803 134.791 51.3797C135.035 51.3791 135.275 51.4406 135.486 51.5578C135.698 51.6751 135.874 51.844 135.996 52.0476C136.118 52.2512 136.183 52.4823 136.183 52.7177V189.108Z" fill="#455A64"/>
<path d="M136.183 189.108C136.183 190.387 135.251 191.201 134.104 191.838L68.3959 228.472C67.2547 229.084 66.3164 228.594 66.3164 227.309V91.6592C66.3167 90.9579 66.5084 90.2689 66.8724 89.6618C67.2364 89.0548 67.7597 88.5511 68.3896 88.2014L134.097 51.561C134.308 51.4428 134.548 51.3802 134.791 51.3797C135.035 51.3791 135.275 51.4405 135.486 51.5578C135.698 51.675 135.874 51.844 135.996 52.0476C136.118 52.2512 136.183 52.4823 136.183 52.7177V189.108Z" fill="#263238"/>
<path d="M68.3959 228.472L134.104 191.85C134.565 191.609 134.991 191.311 135.372 190.962L66.3164 153.422V227.309C66.3164 228.594 67.2547 229.108 68.3959 228.472Z" fill="#37474F"/>
<path d="M130.864 186.727V53.3664L68.3896 88.2015C67.7597 88.5511 67.2364 89.0548 66.8724 89.6619C66.5084 90.2689 66.3167 90.9579 66.3164 91.6593V224.274L128.784 189.457C129.932 188.82 130.864 188.006 130.864 186.727Z" fill="#3A5A40"/>
<path d="M65.1879 245.412C64.4633 245.707 63.681 245.847 62.8951 245.821C62.1092 245.796 61.3383 245.606 60.6358 245.265L57.8588 243.717C57.1502 243.274 56.5602 242.675 56.1371 241.97C55.714 241.265 55.4697 240.473 55.4243 239.659V76.5C55.4403 75.8953 55.5826 75.3 55.8427 74.7497C55.9315 74.56 56.0266 74.3764 56.1344 74.1866L63.7424 78.4706C63.5825 78.7465 63.4426 79.0328 63.3239 79.3274C63.1392 79.7909 63.0384 80.2815 63.0259 80.7779V243.9C63.064 245.277 63.9896 245.902 65.1879 245.412Z" fill="#263238"/>
<path d="M103.513 212.548C105.066 212.548 105.231 214.231 105.231 214.953C105.138 216.4 104.699 217.806 103.948 219.061C103.196 220.317 102.153 221.386 100.901 222.187C100.399 222.495 99.8219 222.672 99.2274 222.701C97.6741 222.701 97.5092 221.018 97.5092 220.296C97.6028 218.849 98.0418 217.442 98.7919 216.186C99.542 214.93 100.583 213.859 101.833 213.056C102.34 212.752 102.918 212.578 103.513 212.548Z" fill="#3A5A40"/>
<path d="M101.32 59.3089C101.954 58.9417 102.505 59.2355 102.505 59.9699C102.482 60.3669 102.363 60.7532 102.157 61.0976C101.951 61.442 101.664 61.7349 101.32 61.9528C100.686 62.3139 100.128 62.0201 100.128 61.2918C100.149 60.8938 100.269 60.5064 100.476 60.1617C100.683 59.8169 100.972 59.5246 101.32 59.3089Z" fill="#263238"/>
<path d="M93.6608 68.9724C94.2441 68.648 94.7133 68.9112 94.7133 69.5844C94.6939 69.9366 94.5885 70.2793 94.4056 70.5846C94.2227 70.8899 93.9674 71.1491 93.6608 71.3408C93.0776 71.6652 92.6084 71.402 92.6084 70.7288C92.6287 70.3769 92.7346 70.0345 92.9174 69.7294C93.1003 69.4242 93.3549 69.1649 93.6608 68.9724Z" fill="#263238"/>
<path d="M97.1796 66.9651L108.966 60.3983C109.6 60.0372 110.132 60.2943 110.132 60.9675C110.101 61.3455 109.98 61.7115 109.777 62.0364C109.575 62.3614 109.297 62.6366 108.966 62.8402L97.1796 69.4069C96.5456 69.768 96.013 69.511 96.013 68.8378C96.0439 68.4597 96.1654 68.0938 96.3678 67.7688C96.5702 67.4438 96.8481 67.1687 97.1796 66.9651Z" fill="#263238"/>
<path d="M139.651 37.6809C139.474 36.4569 138.466 36.0223 137.255 36.7017L65.4859 76.6959C64.7677 77.1262 64.1778 77.7294 63.7741 78.4462L56.1661 74.1622C56.5762 73.4511 57.1676 72.8528 57.8842 72.4241L129.609 32.436C130.361 32.0677 131.193 31.8758 132.037 31.8758C132.881 31.8758 133.713 32.0677 134.465 32.436L137.255 33.9783C137.905 34.3946 138.455 34.9404 138.868 35.579C139.282 36.2177 139.549 36.9343 139.651 37.6809Z" fill="#37474F"/>
<path d="M120.827 42.632C120.455 42.824 120.041 42.928 119.619 42.9354C119.197 42.9429 118.779 42.8536 118.399 42.6748C118.272 42.6225 118.162 42.538 118.081 42.4303C117.999 42.3226 117.949 42.1956 117.936 42.0628C117.936 41.8915 117.936 41.255 117.936 41.0775C117.957 40.9248 118.018 40.7797 118.113 40.6564C118.209 40.5331 118.336 40.4357 118.482 40.3737L126.172 36.0897C126.546 35.8991 126.961 35.7959 127.384 35.7884C127.807 35.781 128.226 35.8695 128.607 36.0469C128.731 36.1016 128.839 36.1869 128.919 36.2943C128.999 36.4016 129.049 36.5273 129.063 36.6589C129.063 36.8364 129.063 37.4973 129.063 37.6687C129.043 37.8223 128.983 37.9683 128.887 38.0927C128.791 38.2171 128.664 38.3155 128.518 38.3786L120.827 42.632Z" fill="#3A5A40"/>
<path opacity="0.25" d="M120.827 42.632C120.455 42.824 120.041 42.928 119.619 42.9354C119.197 42.9429 118.779 42.8536 118.399 42.6748C118.272 42.6225 118.162 42.538 118.081 42.4303C117.999 42.3226 117.949 42.1956 117.936 42.0628C117.936 41.8915 117.936 41.255 117.936 41.0775C117.957 40.9248 118.018 40.7797 118.113 40.6564C118.209 40.5331 118.336 40.4357 118.482 40.3737L126.172 36.0897C126.546 35.8991 126.961 35.7959 127.384 35.7884C127.807 35.781 128.226 35.8695 128.607 36.0469C128.731 36.1016 128.839 36.1869 128.919 36.2943C128.999 36.4016 129.049 36.5273 129.063 36.6589C129.063 36.8364 129.063 37.4973 129.063 37.6687C129.043 37.8223 128.983 37.9683 128.887 38.0927C128.791 38.2171 128.664 38.3155 128.518 38.3786L120.827 42.632Z" fill="black"/>
<path d="M120.828 41.6588L128.518 37.3748C129.216 36.9832 129.247 36.3773 128.601 36.0162C128.22 35.8388 127.801 35.7503 127.378 35.7578C126.955 35.7652 126.54 35.8684 126.166 36.059L118.476 40.343C117.785 40.7286 117.746 41.3345 118.4 41.6956C118.779 41.8738 119.196 41.9634 119.618 41.957C120.04 41.9506 120.454 41.8485 120.828 41.6588Z" fill="#3A5A40"/>
<path opacity="0.3" d="M120.828 41.6588L128.518 37.3748C129.216 36.9832 129.247 36.3773 128.601 36.0162C128.22 35.8388 127.801 35.7503 127.378 35.7578C126.955 35.7652 126.54 35.8684 126.166 36.059L118.476 40.343C117.785 40.7286 117.746 41.3345 118.4 41.6956C118.779 41.8738 119.196 41.9634 119.618 41.957C120.04 41.9506 120.454 41.8485 120.828 41.6588Z" fill="black"/>
<path d="M60.23 101.084C60.215 100.677 60.1003 100.279 59.8954 99.9223C59.6904 99.566 59.401 99.2615 59.0508 99.0339C58.936 98.9521 58.8001 98.9025 58.658 98.8906C58.5159 98.8787 58.3732 98.905 58.2456 98.9665C58.0998 99.0522 57.5165 99.3643 57.3643 99.4561C57.237 99.5492 57.1368 99.6726 57.0735 99.8141C57.0102 99.9557 56.9859 100.111 57.003 100.264V118.453C57.0183 118.859 57.1324 119.257 57.3362 119.613C57.5399 119.969 57.8276 120.274 58.1759 120.503C58.2905 120.577 58.423 120.622 58.5607 120.633C58.6983 120.643 58.8365 120.62 58.962 120.564C59.1269 120.484 59.7165 120.154 59.875 120.062C60.0023 119.969 60.1025 119.846 60.1658 119.704C60.2292 119.563 60.2535 119.408 60.2364 119.254L60.23 101.084Z" fill="#3A5A40"/>
<path opacity="0.3" d="M60.23 101.084C60.215 100.677 60.1003 100.279 59.8954 99.9223C59.6904 99.566 59.401 99.2615 59.0508 99.0339C58.936 98.9521 58.8001 98.9025 58.658 98.8906C58.5159 98.8787 58.3732 98.905 58.2456 98.9665C58.0998 99.0522 57.5165 99.3643 57.3643 99.4561C57.237 99.5492 57.1368 99.6726 57.0735 99.8141C57.0102 99.9557 56.9859 100.111 57.003 100.264V118.453C57.0183 118.859 57.1324 119.257 57.3362 119.613C57.5399 119.969 57.8276 120.274 58.1759 120.503C58.2905 120.577 58.423 120.622 58.5607 120.633C58.6983 120.643 58.8365 120.62 58.962 120.564C59.1269 120.484 59.7165 120.154 59.875 120.062C60.0023 119.969 60.1025 119.846 60.1658 119.704C60.2292 119.563 60.2535 119.408 60.2364 119.254L60.23 101.084Z" fill="black"/>
<path d="M59.3548 101.592V119.781C59.3548 120.552 58.8285 120.882 58.1755 120.521C57.8272 120.292 57.5396 119.987 57.3358 119.631C57.1321 119.275 57.0179 118.878 57.0026 118.471V100.264C57.0026 99.4867 57.5288 99.1563 58.1755 99.5173C58.5284 99.7481 58.8194 100.057 59.0244 100.417C59.2294 100.778 59.3427 101.181 59.3548 101.592Z" fill="#3A5A40"/>
<path opacity="0.4" d="M59.3548 101.592V119.781C59.3548 120.552 58.8285 120.882 58.1755 120.521C57.8272 120.292 57.5396 119.987 57.3358 119.631C57.1321 119.275 57.0179 118.878 57.0026 118.471V100.264C57.0026 99.4867 57.5288 99.1563 58.1755 99.5173C58.5284 99.7481 58.8194 100.057 59.0244 100.417C59.2294 100.778 59.3427 101.181 59.3548 101.592Z" fill="black"/>
<path d="M60.23 125.46C60.215 125.053 60.1003 124.655 59.8954 124.298C59.6904 123.942 59.401 123.637 59.0508 123.41C58.936 123.328 58.8001 123.278 58.658 123.267C58.5159 123.255 58.3732 123.281 58.2456 123.342C58.0998 123.428 57.5165 123.74 57.3643 123.832C57.237 123.925 57.1368 124.049 57.0735 124.19C57.0102 124.332 56.9859 124.487 57.003 124.64V133.208C57.0193 133.613 57.1339 134.01 57.3376 134.365C57.5413 134.72 57.8284 135.024 58.1759 135.252C58.2867 135.331 58.4174 135.38 58.5546 135.394C58.6917 135.408 58.8301 135.387 58.9557 135.332C59.1205 135.252 59.7101 134.922 59.8686 134.83C59.9955 134.738 60.0954 134.615 60.1587 134.475C60.222 134.334 60.2466 134.18 60.23 134.028V125.46Z" fill="#3A5A40"/>
<path opacity="0.3" d="M60.23 125.46C60.215 125.053 60.1003 124.655 59.8954 124.298C59.6904 123.942 59.401 123.637 59.0508 123.41C58.936 123.328 58.8001 123.278 58.658 123.267C58.5159 123.255 58.3732 123.281 58.2456 123.342C58.0998 123.428 57.5165 123.74 57.3643 123.832C57.237 123.925 57.1368 124.049 57.0735 124.19C57.0102 124.332 56.9859 124.487 57.003 124.64V133.208C57.0193 133.613 57.1339 134.01 57.3376 134.365C57.5413 134.72 57.8284 135.024 58.1759 135.252C58.2867 135.331 58.4174 135.38 58.5546 135.394C58.6917 135.408 58.8301 135.387 58.9557 135.332C59.1205 135.252 59.7101 134.922 59.8686 134.83C59.9955 134.738 60.0954 134.615 60.1587 134.475C60.222 134.334 60.2466 134.18 60.23 134.028V125.46Z" fill="black"/>
<path d="M59.3548 125.919V134.487C59.3548 135.258 58.8285 135.595 58.1755 135.228C57.8272 134.998 57.5396 134.694 57.3358 134.337C57.1321 133.981 57.0179 133.584 57.0026 133.177V124.609C57.0026 123.838 57.5288 123.502 58.1755 123.863C58.5251 124.092 58.814 124.398 59.0188 124.755C59.2236 125.112 59.3387 125.511 59.3548 125.919Z" fill="#3A5A40"/>
<path opacity="0.4" d="M59.3548 125.919V134.487C59.3548 135.258 58.8285 135.595 58.1755 135.228C57.8272 134.998 57.5396 134.694 57.3358 134.337C57.1321 133.981 57.0179 133.584 57.0026 133.177V124.609C57.0026 123.838 57.5288 123.502 58.1755 123.863C58.5251 124.092 58.814 124.398 59.0188 124.755C59.2236 125.112 59.3387 125.511 59.3548 125.919Z" fill="black"/>
<path d="M81.2408 110.276C81.3038 110.573 81.3886 110.866 81.4944 111.151C81.9065 112.229 82.6483 113.244 82.5849 114.395C82.5151 115.692 81.4563 116.696 80.6448 117.73C79.5902 119.098 78.8873 120.688 78.5941 122.369C78.3009 124.05 78.4257 125.775 78.9584 127.4C79.7379 129.38 80.8191 131.236 82.1664 132.908L85.2286 137.1C86.1546 138.274 87.3363 139.237 88.6903 139.922C91.3216 141.357 94.2575 142.194 97.2746 142.37C102.234 142.693 107.167 141.444 111.324 138.814C115.73 135.999 113.79 128.777 118.298 126.139C123.75 122.957 126.35 111.904 119.668 107.29C119.668 107.29 120.745 100.521 118.767 98.7952C116.796 97.2029 114.357 96.2482 111.793 96.0657C108.256 95.7107 104.711 96.3778 101.18 96.3655C97.5448 96.3542 93.9126 96.573 90.307 97.0204C89.039 97.1856 87.2511 97.6324 86.5664 98.8258C86.3731 99.2938 86.3203 99.805 86.4142 100.301C86.4044 101.087 86.1132 101.846 85.59 102.449C84.8039 103.367 83.688 103.985 82.8511 104.848C82.1606 105.567 81.655 106.434 81.3752 107.377C81.0955 108.32 81.0494 109.313 81.2408 110.276Z" fill="#263238"/>
<path d="M116.428 120.044C122.134 120.197 122.876 121.372 127.986 126.256C132.233 130.313 146.308 142.853 146.308 142.853L163.173 147.186L159.191 157.119C159.191 157.119 155.387 156.966 147.779 156.96C143.107 156.96 141.483 155.95 136.779 152.92C134.383 151.372 120.859 142.829 120.859 142.829L116.428 120.044Z" fill="#E6E6E6"/>
<path d="M181.831 127.1L150.924 137.614L142.403 173.11L143.094 173.82L172.48 163.239L182.516 127.81L181.831 127.1Z" fill="#3A5A40"/>
<path opacity="0.35" d="M151.608 138.324L143.094 173.82L142.403 173.11L150.924 137.614L151.608 138.324Z" fill="black"/>
<path opacity="0.25" d="M182.516 127.81L151.608 138.324L143.094 173.82L172.48 163.239L182.516 127.81Z" fill="black"/>
<g opacity="0.2">
<path d="M167.883 156.017C168.168 156.715 170.54 158.251 173.97 157.976L174.547 155.931L167.883 156.017Z" fill="black"/>
</g>
<g opacity="0.1">
<path d="M173.209 135.081L173.462 133.887C173.602 133.232 171.789 133.575 169.411 134.658L163.832 136.286C161.454 137.37 159.21 138.177 159.064 138.832L158.811 140.019L173.209 135.081Z" fill="black"/>
</g>
<path d="M175.047 129.695C175.136 129.285 174.413 129.371 173.443 129.622L171.662 130.203C171.662 130.203 172.391 128.477 168.175 129.591C163.54 130.815 163.439 133.037 163.439 133.037C162.714 133.34 161.971 133.602 161.214 133.82C159.673 134.303 159.508 134.591 159.381 135.007L159.153 135.76L174.908 130.411C174.908 130.411 174.984 130.105 175.047 129.695Z" fill="#37474F"/>
<path d="M173.386 131.978C171.928 132.59 171.326 132.926 171.104 133.942C170.857 135.099 170.806 135.582 170.806 135.582L162.602 138.704C162.602 138.704 163.046 136.996 163.154 136.427C163.261 135.858 162.177 135.858 160.757 136.488L161.093 135.068L173.855 130.497L173.386 131.978Z" fill="#37474F"/>
<path d="M173.627 135.099C173.627 135.099 173.748 134.567 173.887 133.906C174.027 133.245 172.213 133.593 169.836 134.677L164.257 136.305C161.879 137.388 159.629 138.196 159.489 138.851L159.235 140.075L173.627 135.099Z" fill="#37474F"/>
<path d="M179.08 139.952C179.08 139.952 177.983 143.844 177.691 144.848C177.4 145.852 172.34 148.086 169.811 148.392C164.967 148.973 164.415 149.983 165.575 153.288C166.653 156.348 169.804 157.51 174.179 157.015C176.233 156.782 179.067 155.026 180.183 151.96C181.603 148.043 180.817 143.863 181.406 141.556C181.996 139.248 180.31 138.587 179.08 139.952Z" fill="#FFA8A7"/>
<path d="M131.187 193.478L127.909 195.314L126.534 196.079L108.503 206.122L106.043 207.468L101.89 209.781L103.158 197.29L105.58 173.104V172.853L105.694 171.77L108.864 140.148L110.253 126.311L110.741 121.347L110.906 119.744H110.994C112.463 119.35 114.015 119.35 115.483 119.744C115.81 119.84 116.129 119.963 116.434 120.111C118.336 121.023 119.604 122.798 120.657 124.664C120.915 125.119 121.148 125.587 121.354 126.066C122.136 127.88 122.738 129.761 123.154 131.684C123.985 135.234 125.056 138.863 125.481 144.585C125.548 146.058 125.467 147.534 125.24 148.991C124.955 152.849 124.906 156.72 125.095 160.583C125.627 169.334 127.909 173.3 131.187 193.478Z" fill="#E0E0E0"/>
<path d="M126.534 196.066L108.503 206.109L106.043 207.468L101.89 209.781L99.0308 211.373L81.6719 221.042C81.8557 214.31 81.9381 207.009 81.7733 200.112C81.7226 197.805 81.7036 195.448 81.805 193.037C82.1347 184.665 83.7831 175.687 89.692 166.238L89.9646 165.76C90.662 169.757 97.002 172.351 102.708 172.963L103.342 173.019C104.058 173.086 104.8 173.116 105.567 173.116H106.049C110.874 173.074 116.586 171.978 123.167 169.83C123.801 173.38 124.435 178.037 125.114 183.484C125.418 185.932 125.726 188.541 126.039 191.311C126.166 192.86 126.363 194.445 126.534 196.066Z" fill="#FFA8A7"/>
<path d="M127.91 195.301L126.534 196.066L108.503 206.109L106.043 207.468L101.89 209.781L99.0308 211.373L81.6719 221.042L79.7699 222.101C79.865 214.855 79.9284 207.756 79.9221 203.3C79.9221 199.157 80.0172 195.473 80.2517 192.205C80.7146 185.754 81.6782 180.901 83.2886 177.229C85.1781 173.21 87.4134 169.351 89.971 165.693C89.971 165.693 91.556 170.858 103.412 171.672H103.488C104.185 171.721 104.921 171.752 105.694 171.764H106.594C121.354 171.764 122.983 168.171 122.983 168.171C124.425 173.454 125.566 178.809 126.401 184.212C126.713 186.121 127.016 188.161 127.307 190.332C127.523 191.923 127.726 193.576 127.91 195.301Z" fill="#3A5A40"/>
<path opacity="0.4" d="M127.91 195.301L126.534 196.066L108.503 206.109L106.043 207.468L101.89 209.781L99.0308 211.373L81.6719 221.042L79.7699 222.101C79.865 214.855 79.9284 207.756 79.9221 203.3C79.9221 199.157 80.0172 195.473 80.2517 192.205C80.7146 185.754 81.6782 180.901 83.2886 177.229C85.1781 173.21 87.4134 169.351 89.971 165.693C89.971 165.693 91.556 170.858 103.412 171.672H103.488C104.185 171.721 104.921 171.752 105.694 171.764H106.594C121.354 171.764 122.983 168.171 122.983 168.171C124.425 173.454 125.566 178.809 126.401 184.212C126.713 186.121 127.016 188.161 127.307 190.332C127.523 191.923 127.726 193.576 127.91 195.301Z" fill="black"/>
<path opacity="0.2" d="M119.446 187.18C119.446 187.18 117.797 192.235 110.861 195.069L110.532 196.617L108.503 206.109L106.043 207.468L107.514 196.997L108.148 192.443C112.434 192.014 116.431 190.152 119.446 187.18Z" fill="black"/>
<path d="M98.3524 121.207L91.3784 121.917C86.7629 123.006 84.6771 124.977 84.2016 128.912C83.9797 130.748 82.8321 135.644 84.4425 141.764C85.9007 147.321 89.7934 160.919 89.7934 160.919C89.7934 160.919 80.835 172.205 79.212 191.556C95.6072 201.887 120.758 196.336 127.561 190.093C126.99 184.181 123.078 167.957 122.59 162.688C122.59 162.688 122.952 154.457 123.63 150.889C128.816 145.423 128.157 140.197 125.83 135.98C121.531 128.196 115.052 121.353 112.953 121.36L98.3524 121.207Z" fill="#3A5A40"/>
<path opacity="0.7" d="M98.3524 121.207L91.3784 121.917C86.7629 123.006 84.6771 124.977 84.2016 128.912C83.9797 130.748 82.8321 135.644 84.4425 141.764C85.9007 147.321 89.7934 160.919 89.7934 160.919C89.7934 160.919 80.835 172.205 79.212 191.556C95.6072 201.887 120.758 196.336 127.561 190.093C126.99 184.181 123.078 167.957 122.59 162.688C122.59 162.688 122.952 154.457 123.63 150.889C128.816 145.423 128.157 140.197 125.83 135.98C121.531 128.196 115.052 121.353 112.953 121.36L98.3524 121.207Z" fill="white"/>
<path d="M104.394 163.343C104.394 163.465 104.394 163.575 104.394 163.667V163.826C104.399 163.877 104.399 163.928 104.394 163.979C104.154 166.427 103.868 169.028 103.564 171.678C103.564 171.678 103.564 171.678 103.564 171.715C103.52 172.143 103.469 172.572 103.418 173.006C102.486 180.993 101.377 189.53 100.521 197.303C100.311 199.188 100.121 201.024 99.9501 202.811C99.6838 205.485 99.3985 208.417 99.1069 211.379L81.748 221.048L79.846 222.107L74.9958 224.806C75.9722 215.534 78.2483 194.053 79.5163 184.359C79.6621 183.263 79.8523 182.168 80.0678 181.079L80.239 180.283L80.3151 179.959C80.3975 179.591 80.48 179.236 80.5687 178.875C80.6575 178.514 80.7399 178.208 80.8223 177.884C81.0189 177.143 81.2281 176.415 81.4563 175.705C81.5641 175.362 81.6655 175.02 81.7797 174.683C81.8938 174.347 81.9889 174.01 82.103 173.679C82.3312 173.019 82.5531 172.37 82.7877 171.739C82.785 171.727 82.785 171.715 82.7877 171.703C82.8955 171.403 83.0096 171.091 83.1237 170.809C83.2759 170.393 83.4344 169.989 83.5929 169.585L83.7831 169.102C83.8782 168.881 83.9606 168.667 84.0494 168.453C84.36 167.7 84.6834 166.984 84.9687 166.317C85.0321 166.17 85.1018 166.023 85.1652 165.883C85.2286 165.742 85.3301 165.534 85.4061 165.362C85.5963 164.934 85.7865 164.536 85.9704 164.138C86.0465 163.967 86.1289 163.802 86.205 163.643C86.281 163.484 86.3888 163.275 86.4712 163.104L86.5917 162.859L86.7185 162.621C86.7268 162.589 86.7419 162.56 86.7629 162.535C86.7802 162.49 86.8014 162.447 86.8263 162.406C86.8416 162.379 86.8544 162.35 86.8643 162.321C86.9171 162.234 86.9637 162.144 87.0038 162.051L87.4286 161.256C87.4286 161.213 87.473 161.182 87.4857 161.146L87.6505 160.852L82.3756 139.738L79.7508 129.248V129.077C79.8713 128.147 80.6765 123.759 85.3174 122.424C87.9375 121.772 90.6213 121.386 93.3248 121.274C94.3645 121.213 95.3029 121.188 96.07 121.17H97.281H98.01C98.0117 121.184 98.0117 121.198 98.01 121.213C98.0481 121.305 98.1559 121.58 98.3207 122.008C98.3385 122.08 98.364 122.15 98.3968 122.216C98.3974 122.227 98.3974 122.237 98.3968 122.247C99.538 125.27 102.74 134.071 104.331 141.715C104.61 143.037 104.838 144.328 105.003 145.552C105.479 149.377 105.13 155.778 104.394 163.343Z" fill="#FAFAFA"/>
<path d="M87.8217 150.742C87.8217 150.742 88.4557 147.725 89.3877 141.207C90.4718 133.691 90.0851 129.977 88.9122 127.602L82.2996 139.775L87.5744 160.889C87.5744 160.889 82.1537 170.473 79.9664 181.085C85.1526 166.941 90.8268 162.725 90.8268 162.725L87.8217 150.742Z" fill="#E6E6E6"/>
<path d="M110.988 116.494C113.042 116.494 113.283 116.825 115.052 119.114C116.104 120.478 122.768 131.097 122.768 131.097C122.768 131.097 117.468 124.365 113.467 122.32C112.697 121.885 111.863 121.563 110.994 121.366L110.988 116.494Z" fill="#EBEBEB"/>
<path d="M95.7974 139.059C95.7974 138.447 95.734 137.125 95.6262 135.46C95.1 127.296 94.8464 119.952 97.6994 119.34L97.9466 120.466C95.8671 120.901 96.5518 131.409 96.8118 135.362C96.9259 137.064 97.0147 138.422 96.983 139.083L95.7974 139.059Z" fill="#3A5A40"/>
<path d="M86.2874 85.6066L90.7254 89.1133C90.9667 88.8468 91.149 88.5355 91.2613 88.1985C91.3736 87.8615 91.4135 87.506 91.3785 87.1536C91.3434 86.8013 91.2343 86.4595 91.0577 86.1493C90.8811 85.8391 90.6407 85.567 90.3513 85.3495C89.7679 84.8838 89.022 84.6509 88.2665 84.6987C87.511 84.7465 86.8029 85.0713 86.2874 85.6066Z" fill="#263238"/>
<path d="M97.877 117.014C97.877 114.328 91.3911 110.282 88.0436 104.634C84.6961 98.9849 86.3698 89.6947 90.96 88.2688C90.998 88.2688 91.1248 87.0754 91.1439 86.9897C91.3977 85.9118 91.8256 84.8792 92.4119 83.9297C94.2822 80.8207 98.2447 78.4217 101.922 77.9199C116.459 75.8758 123.142 81.3287 125.811 87.3263C126.676 89.3438 127.062 91.523 126.94 93.7033C126.865 95.3047 126.249 96.8385 125.187 98.0706C124.125 99.3027 122.674 100.165 121.056 100.527L97.877 117.014Z" fill="#263238"/>
<path d="M118.044 85.3189C120.891 86.5429 123.598 90.7229 123.554 102.486C123.516 112.461 120.346 114.983 118.748 115.723C117.151 116.464 114.025 116.084 110.988 115.637V121.366C110.988 121.366 113.264 123.526 112.465 124.885C111.666 126.243 108.718 127.394 104.134 126.005C98.942 124.432 97.7565 121.109 97.7565 121.109L97.636 108.538C97.636 108.538 95.8925 110.307 92.8176 107.712C90.2816 105.564 89.3686 101.886 91.277 99.8662C93.1853 97.8466 95.6326 97.6875 97.8389 99.9457L99.4239 99.1379C102.252 98.8197 106.398 98.3607 109.454 96.8735C117.29 93.024 118.102 88.8502 118.044 85.3189Z" fill="#FFA8A7"/>
<path d="M97.8833 98.3178L97.9213 103.826C98.2878 103.835 98.6523 103.772 98.9926 103.64C99.3328 103.509 99.6416 103.311 99.8999 103.06C100.158 102.809 100.361 102.51 100.495 102.181C100.629 101.851 100.691 101.499 100.679 101.145C100.672 100.419 100.38 99.7231 99.8603 99.198C99.341 98.6729 98.6342 98.3582 97.8833 98.3178Z" fill="#263238"/>
<path d="M118.311 99.1012C118.313 99.36 118.395 99.6123 118.545 99.8269C118.694 100.042 118.906 100.209 119.154 100.308C119.401 100.408 119.674 100.435 119.937 100.386C120.2 100.338 120.443 100.216 120.635 100.035C120.827 99.8549 120.96 99.6239 121.018 99.3711C121.075 99.1183 121.054 98.8548 120.958 98.6132C120.862 98.3717 120.694 98.1628 120.476 98.0123C120.258 97.8619 119.999 97.7766 119.731 97.767C119.546 97.7629 119.363 97.7944 119.191 97.8596C119.02 97.9247 118.863 98.0222 118.731 98.1464C118.599 98.2707 118.493 98.4191 118.421 98.583C118.349 98.7469 118.312 98.9231 118.311 99.1012Z" fill="black"/>
<path d="M107.374 99.6887C107.363 99.8785 107.391 100.068 107.456 100.248C107.521 100.427 107.622 100.592 107.753 100.734C107.885 100.875 108.044 100.991 108.221 101.073C108.399 101.155 108.591 101.202 108.788 101.213C108.988 101.214 109.185 101.178 109.37 101.105C109.555 101.033 109.723 100.926 109.865 100.791C110.007 100.655 110.12 100.494 110.198 100.317C110.275 100.139 110.315 99.9486 110.316 99.756C110.322 99.5696 110.29 99.3838 110.222 99.2092C110.154 99.0346 110.051 98.8747 109.919 98.7386C109.787 98.6025 109.628 98.4929 109.452 98.4159C109.276 98.339 109.086 98.2963 108.893 98.2903C108.699 98.2843 108.507 98.315 108.326 98.3808C108.145 98.4466 107.98 98.5461 107.839 98.6737C107.698 98.8013 107.584 98.9544 107.504 99.1244C107.425 99.2943 107.38 99.4778 107.374 99.6642V99.6887Z" fill="black"/>
<path d="M121.937 96.6348L118.406 95.2823C118.488 95.053 118.617 94.8423 118.787 94.6637C118.957 94.485 119.163 94.342 119.393 94.2438C119.623 94.1456 119.871 94.0942 120.122 94.0928C120.373 94.0914 120.622 94.1401 120.853 94.2358C121.318 94.4247 121.69 94.7793 121.892 95.2259C122.094 95.6726 122.11 96.177 121.937 96.6348Z" fill="black"/>
<path d="M114.963 98.024L114.786 106.188L119.331 105.215L114.963 98.024Z" fill="#F28F8F"/>
<path d="M109.606 107.853L114.044 109.181C113.979 109.473 113.853 109.749 113.674 109.992C113.494 110.235 113.264 110.44 112.999 110.594C112.734 110.747 112.439 110.847 112.132 110.886C111.825 110.925 111.514 110.903 111.216 110.821C110.607 110.617 110.102 110.196 109.803 109.645C109.503 109.093 109.433 108.452 109.606 107.853Z" fill="#B16668"/>
<path d="M112.06 110.894C112.054 110.299 111.806 109.729 111.368 109.309C110.929 108.89 110.337 108.654 109.72 108.654C109.659 108.651 109.597 108.651 109.536 108.654C109.559 109.133 109.73 109.593 110.027 109.976C110.325 110.359 110.735 110.647 111.204 110.803C111.479 110.89 111.771 110.922 112.06 110.894Z" fill="#F28F8F"/>
<path d="M110.988 115.668C107.786 115.301 101.186 113.526 100.115 110.937C100.544 112.237 101.368 113.382 102.48 114.224C104.471 115.876 110.988 117.596 110.988 117.596V115.668Z" fill="#F28F8F"/>
<path d="M97.7248 116.525C96.8879 116.36 96.1461 116.715 95.4614 117.828C94.7767 118.942 93.2741 121.317 93.2741 121.317C93.2741 121.317 92.4943 129.144 93.2741 131.109C93.9461 132.798 101.358 139.132 101.358 139.132C101.358 139.132 99.4239 146.164 99.3541 148.471C99.2844 150.778 103.792 159.536 104.337 164.016C104.337 164.016 105.941 149.94 105.25 144.867C104.058 136.072 99.7853 124.713 97.7691 121.103L97.7248 116.525Z" fill="#EBEBEB"/>
<path d="M102.258 145.656C101.763 144.52 101.18 143.421 100.514 142.37C99.4619 140.687 98.1622 139.071 96.9893 138.655C96.8115 138.587 96.6227 138.549 96.4314 138.545H96.368C96.1749 138.555 95.9856 138.601 95.8101 138.679C94.8844 139.077 93.9081 140.295 93.1156 141.696C92.304 143.104 91.6352 144.583 91.1185 146.115C90.8142 147.064 90.9473 149.077 91.3087 151.378C92.0188 155.846 93.5974 161.427 94.4787 162.529C95.1246 163.299 95.8877 163.969 96.7421 164.518C96.219 164.852 95.6545 165.121 95.062 165.32C94.7268 165.438 94.3727 165.498 94.0159 165.497V166.299H94.1173C94.4942 166.293 94.8681 166.233 95.2268 166.121C96.0578 165.861 96.8426 165.479 97.5536 164.989C98.3042 165.42 99.1188 165.738 99.9691 165.932C100.37 166.024 100.784 166.049 101.193 166.005L101.091 165.209C100.736 165.238 100.379 165.212 100.033 165.13C99.4226 164.976 98.8348 164.75 98.2827 164.457C99.0873 163.838 99.7924 163.108 100.375 162.29C100.869 161.562 101.478 159.053 101.935 156.17C102.213 154.45 102.442 152.602 102.569 150.919C102.708 148.569 102.645 146.556 102.258 145.656ZM99.6395 161.85C99.0446 162.678 98.3145 163.407 97.4775 164.01C96.5884 163.48 95.7958 162.812 95.1317 162.033C94.3075 160.999 92.7859 155.552 92.1012 151.256C91.7525 149.083 91.6257 147.204 91.9047 146.36C92.4217 144.81 93.1059 143.316 93.9461 141.904C94.821 140.448 95.753 139.377 96.3997 139.352C97.1669 139.352 98.4095 140.693 99.5697 142.412C99.8043 142.749 100.026 143.116 100.242 143.483C100.715 144.274 101.138 145.092 101.51 145.931C101.858 146.764 101.896 148.643 101.738 150.827C101.649 152.051 101.51 153.33 101.332 154.603C100.85 157.927 100.172 161.042 99.6395 161.831V161.85Z" fill="#455A64"/>
<path d="M102.328 165.534C102.337 165.767 102.275 165.999 102.149 166.198C102.023 166.397 101.838 166.556 101.618 166.654C101.398 166.752 101.153 166.785 100.914 166.749C100.674 166.712 100.452 166.608 100.274 166.449C100.096 166.29 99.9713 166.084 99.9149 165.857C99.8586 165.629 99.8734 165.391 99.9575 165.172C100.042 164.952 100.191 164.762 100.387 164.625C100.584 164.488 100.818 164.41 101.06 164.402C101.383 164.39 101.698 164.503 101.936 164.715C102.174 164.927 102.314 165.222 102.328 165.534Z" fill="#263238"/>
<path d="M95.2205 165.852C95.2316 166.086 95.1705 166.318 95.045 166.518C94.9195 166.718 94.7352 166.878 94.5155 166.977C94.2957 167.076 94.0505 167.109 93.8109 167.074C93.5713 167.038 93.3481 166.934 93.1697 166.776C92.9913 166.617 92.8656 166.411 92.8087 166.183C92.7518 165.956 92.7662 165.717 92.8501 165.498C92.9339 165.278 93.0835 165.088 93.2798 164.95C93.4761 164.813 93.7102 164.735 93.9525 164.726C94.1124 164.719 94.272 164.743 94.4223 164.796C94.5726 164.849 94.7106 164.931 94.8284 165.035C94.9462 165.14 95.0414 165.266 95.1087 165.406C95.176 165.546 95.214 165.698 95.2205 165.852Z" fill="#263238"/>
<path d="M102.467 150.907L101.763 150.858C101.692 150.852 101.625 150.819 101.578 150.767C101.531 150.714 101.506 150.646 101.51 150.576C101.656 148.33 101.579 146.678 101.294 146.017C100.064 143.116 97.4902 139.481 96.406 139.524C95.3219 139.567 93.0775 143.404 92.1012 146.39C91.8793 147.076 91.949 148.728 92.285 150.956C92.2961 151.024 92.279 151.094 92.2375 151.15C92.196 151.206 92.1334 151.244 92.0631 151.256L91.3657 151.36C91.2926 151.369 91.2189 151.349 91.1607 151.305C91.1025 151.262 91.0646 151.198 91.0551 151.127C90.6683 148.63 90.6239 146.917 90.9156 146.029C91.4355 144.426 93.889 138.422 96.3553 138.324C98.8216 138.226 101.795 144.004 102.454 145.564C102.816 146.421 102.924 148.135 102.759 150.65C102.754 150.721 102.721 150.787 102.666 150.835C102.612 150.883 102.541 150.909 102.467 150.907Z" fill="#3A5A40"/>
<path d="M87.2638 122.345C82.6229 122.272 80.48 123.783 77.5382 127.584C75.2051 130.601 66.1262 146.905 63.1147 151.666L46.7195 143.208C43.4036 140.999 42.3322 137.51 40.2336 135.472C38.1351 133.434 35.9605 133.024 33.6527 131.341C31.345 129.658 30.4066 128.349 29.7409 129.922C29.0752 131.494 31.6429 134.04 32.1311 134.671C32.6193 135.301 35.1933 136.702 31.8522 136.751C28.511 136.8 21.8984 133.459 20.288 132.865C18.6776 132.272 18.7727 134.126 19.5652 135.313C20.3577 136.501 20.3197 139.854 21.6574 141.794C23.0713 143.851 23.8447 144.744 26.9957 146.078C29.9248 147.302 36.0746 147.792 39.1875 149.671C42.3005 151.55 50.0163 158.171 54.7079 162.143C60.6738 167.192 64.7885 168.116 68.1106 165.087C71.3377 161.825 74.6091 158 76.2068 156.06C80.5117 150.827 87.3208 138.924 87.3208 138.924C87.3208 138.924 90.2689 132.804 87.2638 122.345Z" fill="#FFA8A7"/>
<path d="M87.9041 121.898C81.0696 121.898 79.0281 124.285 75.5284 129.799C72.0287 135.313 63.0513 151.097 63.0513 151.097L50.124 144.561C50.124 144.561 47.7972 149.505 45.3246 154.603C45.3246 154.603 52.641 160.723 56.1026 163.618C59.5643 166.513 64.1544 168.783 68.4086 165.24C72.9544 161.458 87.6949 141.807 87.6949 141.807C91.1946 135.674 90.4147 126.378 87.9041 121.898Z" fill="#F0F0F0"/>
<path d="M63.0513 151.097C65.1625 153.496 67.7175 156.195 67.6034 158.318C67.6034 158.318 69.0489 156.433 63.9706 149.487L63.0513 151.097Z" fill="#E0E0E0"/>
<path d="M38.5979 92.2406L33.3104 95.166L33.3294 89.303L29.3732 87.0998L20.1485 92.2406V102.522L10.9238 107.663V117.945L14.88 120.148L20.1485 117.21V123.092L24.1047 125.295L33.3294 120.148V109.866L42.5541 104.725V94.4438L38.5979 92.2406Z" fill="#3A5A40"/>
<path d="M14.88 109.866V120.148L24.1047 115.007V125.295L33.3294 120.148V109.866L42.5541 104.725V94.4438L33.2977 99.603L33.3294 89.303L24.1047 94.4438V104.725L14.88 109.866Z" fill="#3A5A40"/>
<g opacity="0.2">
<path d="M14.88 120.148L10.9238 117.945V107.663L14.88 109.866V120.148Z" fill="black"/>
<path d="M24.1047 94.4438L20.1485 92.2406V102.522L24.1047 104.725V94.4438Z" fill="black"/>
<path d="M24.1047 125.295L20.1485 123.092V117.21L24.1047 115.007V125.295Z" fill="black"/>
</g>
<g opacity="0.5">
<path d="M24.1047 104.725L20.1485 102.522L10.9238 107.663L14.88 109.866L24.1047 104.725Z" fill="white"/>
<path d="M33.3294 89.303L29.3732 87.0998L20.1485 92.2406L24.1047 94.4438L33.3294 89.303Z" fill="white"/>
<path d="M42.5541 94.4438L38.5979 92.2406L33.3104 95.166L33.2977 99.603L42.5541 94.4438Z" fill="white"/>
</g>
<path d="M190.327 71.604C190.159 71.4639 189.979 71.339 189.788 71.2307C189.116 70.8451 186.073 69.156 185.914 69.0642C184.304 68.0728 181.755 68.2931 179.485 69.4008C176.233 70.9859 173.526 74.3335 171.459 79.9088C171.459 79.9088 169.367 78.4584 168.688 78.0728C167.008 77.1854 165.043 77.6138 162.83 79.0031C160.339 80.5698 158.64 82.6016 157.086 85.6739V85.729C155.74 88.3376 155.004 91.1999 154.931 94.1134C154.931 100.558 157.663 103.63 161.22 105.937C162.234 106.598 164.916 107.987 165.182 108.159C167.329 109.527 169.703 110.529 172.201 111.121L175.707 111.91L179.213 107.216C181.765 103.755 184.109 100.155 186.231 96.4328C189.788 90.1598 192.571 84.0154 192.52 77.5955C192.47 74.8476 191.652 72.828 190.327 71.604Z" fill="#3A5A40"/>
<path opacity="0.3" d="M190.327 71.604C190.159 71.4639 189.979 71.339 189.788 71.2307C189.116 70.8451 186.073 69.156 185.914 69.0642C184.304 68.0728 181.755 68.2931 179.485 69.4008C176.233 70.9859 173.526 74.3335 171.459 79.9088C171.459 79.9088 169.367 78.4584 168.688 78.0728C167.008 77.1854 165.043 77.6138 162.83 79.0031C160.339 80.5698 158.64 82.6016 157.086 85.6739V85.729C155.74 88.3376 155.004 91.1999 154.931 94.1134C154.931 100.558 157.663 103.63 161.22 105.937C162.234 106.598 164.916 107.987 165.182 108.159C167.329 109.527 169.703 110.529 172.201 111.121L175.707 111.91L179.213 107.216C181.765 103.755 184.109 100.155 186.231 96.4328C189.788 90.1598 192.571 84.0154 192.52 77.5955C192.47 74.8476 191.652 72.828 190.327 71.604Z" fill="black"/>
<path d="M190.327 71.604C190.159 71.4639 189.979 71.339 189.788 71.2307C189.116 70.8451 186.073 69.156 185.914 69.0642C184.304 68.0728 181.755 68.2931 179.485 69.4008C176.233 70.9859 173.526 74.3335 171.459 79.9088C171.459 79.9088 169.367 78.4584 168.688 78.0728C167.008 77.1854 165.043 77.6138 162.83 79.0031C160.339 80.5698 158.639 82.6016 157.086 85.6739V85.729C157.016 85.8636 156.959 85.9982 156.896 86.1329L183.524 100.956C184.469 99.4745 185.388 97.9751 186.263 96.4328C189.82 90.1598 192.603 84.0154 192.552 77.5955C192.47 74.8476 191.652 72.828 190.327 71.604Z" fill="#3A5A40"/>
<path opacity="0.15" d="M190.327 71.604C190.159 71.4639 189.979 71.339 189.788 71.2307C189.116 70.8451 186.073 69.156 185.914 69.0642C184.304 68.0728 181.755 68.2931 179.485 69.4008C176.233 70.9859 173.526 74.3335 171.459 79.9088C171.459 79.9088 169.367 78.4584 168.688 78.0728C167.008 77.1854 165.043 77.6138 162.83 79.0031C160.339 80.5698 158.639 82.6016 157.086 85.6739V85.729C157.016 85.8636 156.959 85.9982 156.896 86.1329L183.524 100.956C184.469 99.4745 185.388 97.9751 186.263 96.4328C189.82 90.1598 192.603 84.0154 192.552 77.5955C192.47 74.8476 191.652 72.828 190.327 71.604Z" fill="black"/>
<path d="M171.44 79.8843L175.003 84.3703L180.747 77.8097L174.255 74.1927C173.099 75.9822 172.154 77.8914 171.44 79.8843Z" fill="#3A5A40"/>
<path opacity="0.3" d="M171.44 79.8843L175.003 84.3703L180.747 77.8097L174.255 74.1927C173.099 75.9822 172.154 77.8914 171.44 79.8843Z" fill="black"/>
<path d="M190.327 71.604C188.774 70.2637 185.946 70.38 183.448 71.604C180.043 73.2686 177.228 76.8611 175.124 82.9444C173.019 79.2112 170.204 79.0949 166.799 81.2308C164.301 82.7975 162.602 84.8293 161.055 87.9016L161.023 87.9566C159.682 90.5689 158.949 93.4326 158.874 96.3472C158.874 102.792 161.613 105.864 165.163 108.171C167.31 109.539 169.684 110.541 172.182 111.133L175.688 111.923L179.194 107.229C181.746 103.767 184.09 100.167 186.212 96.4451C189.769 90.1721 192.552 84.0276 192.501 77.6077C192.47 74.8476 191.652 72.828 190.327 71.604Z" fill="#3A5A40"/>
<g opacity="0.07">
<path d="M187.334 70.992C188.312 70.9488 189.273 71.2464 190.042 71.8304C190.055 71.8568 190.074 71.8799 190.099 71.8978C191.405 73.0483 192.134 75.0924 192.14 77.6383C192.14 84.3397 188.97 90.8453 185.895 96.3166C183.788 100.026 181.46 103.615 178.921 107.063L175.555 111.586L172.277 110.845C169.816 110.262 167.477 109.277 165.36 107.932C162.19 105.852 159.197 103.036 159.223 96.3777C159.29 93.5144 160.002 90.6994 161.309 88.128V88.0729C162.868 84.9823 164.548 83.03 166.932 81.5367C168.04 80.744 169.36 80.2765 170.736 80.1904C172.347 80.1904 173.672 81.1512 174.788 83.128C174.815 83.1809 174.858 83.2251 174.911 83.2555C174.963 83.2858 175.024 83.301 175.085 83.2993H175.117C175.183 83.2935 175.245 83.2696 175.297 83.2305C175.348 83.1914 175.387 83.1388 175.409 83.079C177.419 77.2711 180.088 73.6236 183.562 71.9284C184.722 71.3418 186.006 71.0214 187.315 70.992M187.315 70.6676C185.954 70.6947 184.617 71.0257 183.41 71.6346C180.005 73.2992 177.19 76.8917 175.085 82.975C173.868 80.8085 172.41 79.8599 170.736 79.8599C169.3 79.951 167.92 80.4374 166.761 81.2614C164.263 82.8281 162.564 84.8599 161.017 87.9321L160.985 87.9872C159.644 90.5995 158.911 93.4632 158.836 96.3777C158.836 102.822 161.575 105.894 165.125 108.202C167.272 109.57 169.646 110.572 172.144 111.164L175.65 111.953L179.156 107.259C181.708 103.798 184.052 100.198 186.174 96.4757C189.731 90.2027 192.514 84.0582 192.463 77.6383C192.463 74.8782 191.633 72.828 190.308 71.653C189.471 70.9949 188.413 70.6573 187.334 70.7044L187.315 70.6676Z" fill="black"/>
</g>
<path d="M189.94 88.9542L183.118 92.7608L180.582 83.8562C180.546 83.7216 180.464 83.6027 180.349 83.5193C180.233 83.4359 180.092 83.3928 179.948 83.3972C179.8 83.3943 179.655 83.4417 179.539 83.5312C179.424 83.6207 179.344 83.7465 179.314 83.8868L175.364 101.304L172.042 92.5283C172.036 92.3659 171.962 92.2129 171.839 92.1027C171.715 91.9925 171.551 91.9342 171.383 91.9407C171.215 91.9472 171.056 92.0179 170.942 92.1373C170.828 92.2567 170.768 92.4149 170.774 92.5772L168.53 100.27L161.023 104.456C161.27 104.803 161.537 105.136 161.822 105.454L169.43 101.225C169.577 101.142 169.686 101.009 169.734 100.851L171.503 94.7804L174.908 103.752C174.953 103.878 175.039 103.986 175.154 104.06C175.268 104.134 175.404 104.17 175.542 104.162C175.683 104.156 175.817 104.104 175.924 104.015C176.03 103.926 176.104 103.806 176.132 103.673L179.999 86.6469L182.04 93.8747C182.065 93.9676 182.111 94.0538 182.176 94.1263C182.241 94.1987 182.323 94.2554 182.415 94.2917C182.507 94.328 182.606 94.343 182.705 94.3354C182.804 94.3278 182.9 94.2979 182.985 94.248L189.046 90.8759C189.395 90.2333 189.674 89.5968 189.94 88.9542Z" fill="white"/>
<path d="M218.571 252.627C218.312 253.457 218.29 254.339 218.508 255.18C218.762 255.694 220.347 257.383 223.58 257.995C226.813 258.607 231.258 257.995 233.173 257.885C235.087 257.774 241.098 258.497 243.006 258.729C246.011 259.121 248.319 258.484 249.441 257.438C249.623 257.227 249.757 256.982 249.834 256.719C249.912 256.455 249.931 256.179 249.891 255.908C249.885 255.209 249.778 254.515 249.574 253.845L218.571 252.627Z" fill="#263238"/>
<path d="M249.08 250.81C249.137 251.049 249.194 251.293 249.244 251.538C249.537 252.769 249.629 254.037 249.517 255.296C249.13 256.214 248.072 256.722 247.216 256.979C244.952 257.676 243.234 257.591 240.73 257.107C238.211 256.753 235.666 256.602 233.122 256.654C231.15 256.783 228.437 257.15 226.465 256.973C224.788 256.905 223.134 256.579 221.564 256.006C220.252 255.467 218.908 254.782 218.584 253.46C218.197 250.706 219.396 249.494 220.746 248.723C222.097 247.952 224.018 248.013 226.072 247.884C227.929 247.762 229.286 247.762 230.941 247.64C232.372 247.573 233.793 247.382 235.189 247.071C236.457 246.691 237.725 245.155 238.245 245.1C238.245 245.1 246.518 245.039 247.304 245.1C248.217 245.173 248.496 247.903 248.61 248.496C248.699 248.962 248.718 249.463 248.845 249.91C248.927 250.21 249.003 250.51 249.08 250.81Z" fill="#37474F"/>
<path d="M223.586 256.605C223.326 254.623 222.952 250.326 226.756 247.842H227.232C225.523 247.364 223.71 247.364 222.001 247.842C218.977 248.619 217.633 250.981 218.388 253.478C218.4 253.454 219.072 255.871 223.586 256.605Z" fill="#FAFAFA"/>
<path d="M234.624 247.211C233.401 248.258 232.976 250.638 232.976 250.638C232.817 251.532 231.144 251.667 231.302 250.804C231.558 249.617 232.051 248.491 232.754 247.487C233.328 247.195 233.987 247.098 234.624 247.211Z" fill="#FAFAFA"/>
<path d="M231.194 247.621C230.272 248.493 229.669 249.632 229.476 250.865C229.305 251.722 227.91 251.709 228.012 250.865C228.012 250.865 228.17 248.754 229.476 247.768C229.729 247.612 230.018 247.517 230.317 247.491C230.616 247.466 230.917 247.51 231.194 247.621Z" fill="#FAFAFA"/>
<path d="M247.558 239.292C247.558 239.292 247.336 244.427 247.044 246.11C246.867 247.113 245.504 248.166 242.112 248.056C239.728 247.976 237.851 248.166 237.947 246.367L238.156 241.122L247.558 239.292Z" fill="#FFA8A7"/>
<path d="M252.877 227.162C252.757 228.564 252.56 229.83 253.156 231.373C254.006 233.588 255.806 234.604 256.865 235.473C257.979 236.538 259.007 237.684 259.94 238.9C260.98 240.124 261.252 240.853 262.812 242.187C263.589 242.764 264.508 243.137 265.48 243.269C266.451 243.401 267.441 243.288 268.353 242.94C269.704 242.383 270.173 241.942 270.09 239.941C270.008 237.939 263.402 237.26 263.402 237.26L252.877 227.162Z" fill="#263238"/>
<path d="M269.234 233.98C269.799 234.176 269.938 235.161 270.027 237.119C270.09 238.6 270.769 240.791 268.543 241.703C266.749 242.456 263.883 241.954 262.672 240.559C261.164 238.815 260.136 237.279 257.981 235.155C256.079 233.319 254.177 232.707 253.334 229.004C252.795 226.63 253.22 225.651 254.957 224.971C257.347 224.035 261.094 227.089 262.97 227.572C264.581 227.982 268.67 233.784 269.234 233.98Z" fill="#37474F"/>
<path d="M262.971 227.572L262.654 227.468C261.585 227.507 260.545 227.814 259.637 228.361C258.73 228.907 257.986 229.673 257.48 230.583C257.163 231.226 258.114 231.728 258.748 231.226C260.079 228.778 262.818 228.252 263.915 228.135C263.645 227.885 263.323 227.693 262.971 227.572Z" fill="#FAFAFA"/>
<path d="M264.511 228.686C263.508 228.777 262.543 229.107 261.704 229.646C260.866 230.186 260.179 230.918 259.705 231.777C259.388 232.389 260.371 232.921 260.973 232.389C261.426 231.623 262.046 230.962 262.791 230.451C263.535 229.94 264.386 229.593 265.285 229.433C265.012 229.188 264.758 228.925 264.511 228.686Z" fill="#FAFAFA"/>
<path d="M269.558 230.442L269.234 234.573C269.234 234.573 266.515 236.489 262.615 234.733C262.501 234.506 262.172 230.81 262.172 230.81L269.558 230.442Z" fill="#FFA8A7"/>
<path d="M254.43 231.728C254.43 231.728 254.614 227.34 261.075 226.734L261.449 226.923C260.714 225.823 259.586 225.022 258.279 224.671C256.136 224.139 254.437 224.671 253.308 225.981C252.18 227.291 253.315 230.877 254.43 231.728Z" fill="#FAFAFA"/>
<path d="M271.441 202.927C270.515 195.699 270.173 191.672 270.173 191.672C270.173 191.672 269.989 181.495 270.629 172.088C270.908 167.963 271.054 163.398 271.143 159.236C271.261 154.653 270.883 150.071 270.014 145.564C270.014 145.564 236.862 139.199 236.45 150.938C235.949 165.014 236.013 189.071 235.449 198.257C235.138 203.417 235.677 207.694 236.013 217.719C236.285 226.03 236.203 246.483 236.203 246.483C239.855 251.324 248.477 247.634 248.477 247.634C248.477 247.634 251.14 218.912 251.533 212.976C251.952 206.593 251.254 203.361 251.254 203.361L254.671 173.624C254.671 173.624 254.931 183.165 255.223 188.312C255.515 193.459 256.294 196.623 257.683 206.226C258.888 214.561 261.449 235.834 261.449 235.834C265.887 238.368 270.173 235.834 270.173 235.834C270.173 235.834 272.366 210.155 271.441 202.927Z" fill="#455A64"/>
<path d="M266.914 161.856C266.914 161.856 262.761 166.972 257.404 169.169C257.404 169.169 255.084 187.156 255.103 186.801L254.5 168.698C254.5 168.698 262.476 165.295 266.914 161.856Z" fill="#37474F"/>
<path d="M266.8 104.04C270.369 103.269 274.408 105.729 277.096 111.219C279.695 116.47 286.796 129.732 286.967 133.447C287.151 137.296 269.412 148.973 269.849 148.747C269.989 148.679 266.787 139.915 266.787 139.915L275.403 133.03L270.718 123.716L266.8 104.04Z" fill="#FFA8A7"/>
<path d="M264.923 103.214C267.928 102.859 273.374 103.954 275.454 107.443C278.472 112.492 281.223 118.33 284.729 125.876C284.729 125.876 282.13 131.311 274.649 131.825L270.166 124.236L264.923 103.214Z" fill="#37474F"/>
<path d="M249.796 98.6666L250.316 109.377L261.309 108.807L260.973 96.3655L249.796 98.6666Z" fill="#FFA8A7"/>
<path d="M272.106 108.606C271.181 105.686 267.985 103.281 263.947 103.165C263.047 103.165 261.157 103.165 261.157 103.165C260.701 104.97 254.976 105.613 250.081 104.53C248.604 104.909 242.473 106.366 241.205 106.733C237.687 107.859 236.602 111.323 236.057 122.4C236.057 122.4 236.165 144.236 236.057 154.659C242.245 157.81 251.806 157.419 258.609 156.752C269.298 155.711 270.889 151.972 270.889 151.972C270.439 145.895 270.712 143.606 270.889 137.608C271.022 133.098 272.366 128.33 272.791 123.22C273.419 115.625 272.734 110.613 272.106 108.606Z" fill="#3A5A40"/>
<path d="M248.078 100.698C245.542 100.527 242.372 102.479 241.554 106.659L243.621 106.127L248.078 100.698Z" fill="#3A5A40"/>
<path opacity="0.3" d="M248.078 100.698C245.542 100.527 242.372 102.479 241.554 106.659L243.621 106.127L248.078 100.698Z" fill="black"/>
<path d="M249.935 101.592C251.837 102.204 257.385 102.118 259.243 101.592C261.1 101.066 261.081 100.27 261.081 100.27V99.3704C262.152 99.3675 263.199 99.6815 264.08 100.27C265.266 101.2 267.307 104.554 267.25 106.164C267.193 107.773 263.63 112.02 256.757 111.916C249.885 111.812 246.024 109.358 244.838 107.743L243.646 106.121C243.646 106.121 245.276 102.889 246.88 101.531C247.702 100.761 248.757 100.264 249.891 100.111L249.935 101.592Z" fill="#3A5A40"/>
<path opacity="0.2" d="M249.935 101.592C251.837 102.204 257.385 102.118 259.243 101.592C261.1 101.066 261.081 100.27 261.081 100.27V99.3704C262.152 99.3675 263.199 99.6815 264.08 100.27C265.266 101.2 267.307 104.554 267.25 106.164C267.193 107.773 263.63 112.02 256.757 111.916C249.885 111.812 246.024 109.358 244.838 107.743L243.646 106.121C243.646 106.121 245.276 102.889 246.88 101.531C247.702 100.761 248.757 100.264 249.891 100.111L249.935 101.592Z" fill="black"/>
<path d="M242.397 85.5331C242.397 85.5331 239.779 89.3704 240.077 89.7437C240.375 90.117 242.302 90.4658 242.302 90.4658L242.397 85.5331Z" fill="#F28F8F"/>
<path d="M249.675 74.9088C244.375 75.992 242.258 77.4914 241.928 86.2369C241.611 94.7437 242.721 97.5467 243.874 98.6911C244.654 99.4622 248.997 99.603 251.184 99.0155C253.923 98.2872 260.117 96.1697 263.015 91.8979C266.426 86.8673 267.32 80.0496 263.649 77.2528C258.532 73.3176 251.837 74.4682 249.675 74.9088Z" fill="#FFA8A7"/>
<path d="M243.874 98.685C244.508 99.297 247.545 99.5296 249.828 99.2603L249.796 97.9934C247.905 98.6668 245.877 98.9037 243.874 98.685Z" fill="#F28F8F"/>
<path d="M241.224 78.1952C242.545 79.109 244.183 79.4889 245.789 79.254C245.757 79.9397 245.948 80.6179 246.334 81.194C246.872 81.9797 247.688 82.5496 248.629 82.7975C248.049 83.8954 247.741 85.1084 247.729 86.341C247.693 86.7278 247.78 87.116 247.976 87.4548C248.037 87.5779 248.133 87.6818 248.252 87.7546C248.372 87.8274 248.51 87.866 248.652 87.866C248.793 87.866 248.931 87.8274 249.051 87.7546C249.17 87.6818 249.266 87.5779 249.327 87.4548C249.625 86.8037 249.999 86.1877 250.443 85.6188C251.017 84.9549 251.825 84.5191 252.712 84.3948C256.041 84.046 256.459 88.2504 255.128 89.9946C252.947 92.8465 251.096 90.9126 251.096 90.9126C251.011 92.2495 251.221 93.5885 251.713 94.8409C252.205 96.0934 252.967 97.2305 253.949 98.177C256.315 98.85 258.822 98.9112 261.221 98.3545C264.175 94.4316 266.033 92.5222 267.611 89.1378C270.946 81.9713 269.336 77.4731 266.755 75.5759C266.248 72.2772 263.554 70.7962 260.479 70.1168C255.889 69.0948 251.603 71.7264 247.051 70.7288C246.304 70.5779 245.565 70.39 244.838 70.1658C244.558 70.039 244.239 70.0193 243.944 70.1107C243.781 70.2154 243.653 70.3639 243.577 70.5379C243.5 70.712 243.478 70.9039 243.513 71.0899C243.57 71.9345 244.458 72.8708 244.908 73.3237C243.914 73.4115 242.912 73.3558 241.934 73.1585C241.595 73.0971 241.247 73.0971 240.907 73.1585C240.535 73.3049 240.22 73.5615 240.008 73.8913C239.796 74.2212 239.698 74.6074 239.728 74.9945C239.732 75.5993 239.867 76.1967 240.125 76.748C240.382 77.2993 240.757 77.7923 241.224 78.1952Z" fill="#263238"/>
<path d="M266.838 76.6408L270.008 74.8048C269.756 74.399 269.347 74.1065 268.871 73.9918C268.396 73.877 267.892 73.9493 267.472 74.1928C267.052 74.4362 266.749 74.8309 266.63 75.29C266.511 75.7491 266.586 76.235 266.838 76.6408Z" fill="#263238"/>
<path d="M225.526 124.848C224.808 122.123 224.115 119.393 223.447 116.659C222.813 114.144 221.837 111.231 222.731 108.661C223.239 107.538 223.877 106.475 224.633 105.49C225.287 104.453 225.838 103.359 226.281 102.222C226.503 101.672 226.706 101.109 226.915 100.552C227.124 99.9947 227.422 99.6764 227.283 99.144C226.82 97.3998 224.487 99.6887 224.011 100.405C223.8 100.781 223.554 101.137 223.276 101.47C222.971 101.782 222.23 102.173 221.875 101.714C221.756 101.53 221.691 101.319 221.684 101.102C221.444 98.4157 222.445 96.0106 223.276 93.5014C223.407 93.1719 223.486 92.8253 223.51 92.4732C223.525 92.2974 223.501 92.1205 223.439 91.9546C223.376 91.7888 223.277 91.6379 223.149 91.5124C222.942 91.3593 222.697 91.2617 222.439 91.2295C222.181 91.1972 221.918 91.2315 221.678 91.3288C221.209 91.4818 220.803 91.7694 220.334 91.9102C219.865 92.0509 219.516 92.0509 219.104 92.155C218.126 92.3653 217.185 92.7095 216.308 93.177C214.787 94.0399 214.114 95.3006 213.715 96.9041C213.235 98.8736 213.073 100.903 213.233 102.92C213.341 104.26 213.588 105.582 213.759 106.904L214.33 111.329C214.717 114.279 214.831 129.016 215.357 131.947C215.883 134.879 216.898 136.843 219.301 137.816C222.788 139.187 228.424 132.994 231.626 129.787L225.526 124.848Z" fill="#FFA8A7"/>
<path d="M224.252 123.177C222.008 124.799 219.212 127.498 218.648 130.203C218.648 130.203 218.09 125.338 224.252 121.023V123.177Z" fill="#F28F8F"/>
<path d="M241.028 106.8C238.872 106.996 235.322 107.069 231.708 110.821C227.517 115.203 221.057 123.844 221.057 123.844C221.057 123.844 221.9 130.723 228.76 133.19C228.76 133.19 238.733 124.01 240.876 120.056C243.019 116.103 243.5 109.548 241.028 106.8Z" fill="#37474F"/>
<path d="M238.156 92.259L235.43 90.8453L236.996 89.554L231.334 86.9958L233.807 85.6127L227.707 82.4792L231.334 85.5698L228.386 86.9958L235.036 89.7743L233.394 91.3594L238.156 92.259Z" fill="#3A5A40"/>
<path d="M239.544 88.789L237.769 87.1488L238.739 86.4572L237.179 84.6702L238.676 84.1806L238.156 81.9162L239.208 84.3581L238.156 84.7987L239.842 86.5858L238.701 87.3691L239.544 88.789Z" fill="#3A5A40"/>
<path d="M238.511 94.8478L235.163 97.3692L233.927 95.6128L230.998 97.1489L229.8 94.9763L225.267 96.0963L230.51 93.6727L232.012 95.674L234.447 94.4133L235.461 96.0963L238.511 94.8478Z" fill="#3A5A40"/>
<path d="M215.237 139.971C215.338 139.889 215.47 139.849 215.602 139.861C215.733 139.872 215.855 139.934 215.94 140.032C216.589 140.734 217.431 141.245 218.368 141.503C219.305 141.76 220.3 141.756 221.234 141.488C221.298 141.467 221.366 141.458 221.433 141.462C221.501 141.466 221.566 141.483 221.627 141.513C221.687 141.542 221.741 141.583 221.784 141.633C221.828 141.683 221.86 141.741 221.88 141.803C221.9 141.866 221.906 141.931 221.899 141.996C221.892 142.061 221.871 142.124 221.838 142.181C221.805 142.238 221.76 142.288 221.706 142.327C221.653 142.367 221.591 142.396 221.526 142.412C220.405 142.733 219.213 142.737 218.089 142.425C216.966 142.112 215.959 141.497 215.186 140.65C215.142 140.602 215.109 140.547 215.088 140.487C215.067 140.427 215.059 140.363 215.064 140.3C215.068 140.237 215.086 140.175 215.116 140.118C215.145 140.062 215.187 140.012 215.237 139.971Z" fill="#E0E0E0"/>
<path d="M215.744 143.208C215.833 143.136 215.945 143.097 216.061 143.097C216.177 143.097 216.289 143.136 216.378 143.208C216.894 143.568 217.485 143.815 218.111 143.931C218.736 144.048 219.38 144.03 219.998 143.881C220.129 143.858 220.264 143.885 220.375 143.957C220.485 144.029 220.561 144.141 220.588 144.267C220.6 144.329 220.6 144.392 220.588 144.454C220.575 144.516 220.549 144.575 220.513 144.628C220.476 144.68 220.429 144.725 220.375 144.759C220.32 144.794 220.259 144.818 220.195 144.83C219.431 145.001 218.637 145.008 217.87 144.85C217.104 144.693 216.382 144.374 215.757 143.918C215.706 143.877 215.665 143.827 215.636 143.77C215.606 143.713 215.588 143.652 215.584 143.589C215.579 143.525 215.587 143.462 215.608 143.402C215.629 143.342 215.662 143.286 215.706 143.239C215.717 143.227 215.73 143.217 215.744 143.208Z" fill="#E0E0E0"/>
<path d="M277.996 106.115C277.938 106.144 277.874 106.162 277.808 106.167C277.742 106.172 277.676 106.164 277.614 106.144C277.551 106.124 277.493 106.092 277.443 106.051C277.394 106.009 277.353 105.958 277.324 105.9C276.862 105.072 276.165 104.388 275.316 103.926C274.466 103.465 273.498 103.245 272.525 103.293C272.459 103.297 272.393 103.288 272.331 103.267C272.269 103.246 272.212 103.214 272.162 103.171C272.063 103.086 272.003 102.966 271.996 102.837C271.988 102.709 272.033 102.583 272.122 102.487C272.211 102.392 272.335 102.334 272.468 102.326C273.636 102.267 274.798 102.531 275.817 103.088C276.835 103.644 277.668 104.469 278.218 105.466C278.276 105.581 278.285 105.713 278.244 105.834C278.202 105.955 278.114 106.056 277.996 106.115Z" fill="#E0E0E0"/>
<path d="M278.275 102.871C278.169 102.925 278.046 102.94 277.93 102.913C277.813 102.886 277.711 102.819 277.641 102.724C277.232 102.263 276.725 101.891 276.154 101.636C275.583 101.38 274.961 101.246 274.332 101.243C274.266 101.241 274.201 101.226 274.142 101.199C274.082 101.173 274.028 101.135 273.983 101.089C273.938 101.042 273.904 100.987 273.881 100.928C273.858 100.868 273.847 100.805 273.85 100.741C273.852 100.678 273.868 100.615 273.895 100.558C273.923 100.5 273.962 100.448 274.01 100.405C274.058 100.362 274.115 100.328 274.177 100.306C274.238 100.284 274.304 100.274 274.37 100.276C275.152 100.284 275.922 100.456 276.628 100.782C277.333 101.108 277.956 101.578 278.453 102.161C278.524 102.265 278.551 102.391 278.527 102.513C278.504 102.636 278.431 102.744 278.326 102.816L278.275 102.871Z" fill="#E0E0E0"/>
<path d="M287.139 138.147C287.075 138.035 287.06 137.903 287.097 137.78C287.134 137.658 287.219 137.554 287.335 137.492C288.17 137.007 288.845 136.303 289.282 135.463C289.719 134.622 289.899 133.679 289.801 132.743C289.793 132.68 289.799 132.615 289.817 132.554C289.835 132.493 289.866 132.436 289.907 132.386C289.948 132.337 290 132.296 290.058 132.265C290.116 132.235 290.18 132.216 290.245 132.21C290.377 132.197 290.509 132.234 290.613 132.314C290.716 132.395 290.782 132.511 290.797 132.639C290.91 133.758 290.692 134.885 290.168 135.889C289.644 136.894 288.835 137.734 287.836 138.312C287.779 138.346 287.716 138.369 287.65 138.379C287.584 138.39 287.516 138.387 287.451 138.372C287.386 138.356 287.325 138.328 287.271 138.29C287.218 138.251 287.172 138.202 287.139 138.147Z" fill="#E0E0E0"/>
<path d="M290.505 138.263C290.449 138.163 290.43 138.048 290.452 137.936C290.474 137.824 290.535 137.724 290.626 137.651C291.086 137.236 291.447 136.729 291.684 136.166C291.922 135.603 292.03 134.996 292.001 134.389C292.001 134.261 292.054 134.138 292.148 134.047C292.242 133.957 292.369 133.906 292.502 133.906C292.635 133.906 292.762 133.957 292.856 134.047C292.95 134.138 293.003 134.261 293.003 134.389C293.03 135.142 292.888 135.893 292.586 136.588C292.284 137.283 291.829 137.907 291.253 138.416C291.202 138.455 291.143 138.485 291.079 138.502C291.016 138.519 290.95 138.524 290.884 138.517C290.819 138.51 290.756 138.49 290.698 138.459C290.641 138.428 290.59 138.386 290.55 138.336L290.505 138.263Z" fill="#E0E0E0"/>
<path d="M232.183 196.452C232.302 196.51 232.392 196.61 232.435 196.731C232.477 196.853 232.469 196.985 232.412 197.101C232.01 197.957 231.87 198.907 232.007 199.838C232.144 200.769 232.552 201.643 233.185 202.358C233.271 202.456 233.313 202.583 233.302 202.712C233.292 202.84 233.229 202.959 233.128 203.043C233.028 203.126 232.898 203.168 232.766 203.159C232.634 203.149 232.511 203.09 232.424 202.994C231.664 202.134 231.174 201.082 231.013 199.962C230.851 198.842 231.024 197.701 231.511 196.672C231.571 196.558 231.675 196.471 231.801 196.43C231.926 196.389 232.064 196.397 232.183 196.452Z" fill="#E0E0E0"/>
<path d="M229.343 198.196C229.451 198.246 229.538 198.331 229.587 198.436C229.636 198.542 229.644 198.661 229.609 198.771C229.476 199.366 229.478 199.981 229.615 200.575C229.752 201.169 230.02 201.727 230.402 202.211C230.477 202.316 230.506 202.445 230.483 202.571C230.461 202.697 230.388 202.809 230.281 202.884C230.173 202.958 230.039 202.987 229.908 202.965C229.777 202.943 229.661 202.872 229.584 202.768C229.114 202.163 228.787 201.466 228.625 200.726C228.463 199.986 228.47 199.221 228.646 198.484C228.665 198.422 228.697 198.365 228.74 198.316C228.782 198.267 228.835 198.226 228.894 198.196C228.953 198.167 229.017 198.149 229.083 198.143C229.15 198.138 229.217 198.146 229.28 198.166L229.343 198.196Z" fill="#E0E0E0"/>
<path d="M194.923 28.4274C194.892 27.8567 194.721 27.3013 194.425 26.8066C194.128 26.312 193.715 25.8922 193.218 25.5816L191.836 24.8044C191.307 24.5491 190.724 24.4162 190.133 24.4162C189.542 24.4162 188.96 24.5491 188.431 24.8044L156.319 42.7176C155.823 43.0289 155.41 43.4489 155.113 43.9434C154.817 44.4379 154.646 44.993 154.614 45.5634V61.5917C154.646 62.162 154.818 62.7169 155.114 63.2113C155.41 63.7057 155.823 64.1258 156.319 64.4375L157.707 65.2086C158.235 65.4681 158.818 65.6034 159.41 65.6034C160.002 65.6034 160.585 65.4681 161.112 65.2086L193.218 47.3015C193.715 46.9909 194.128 46.5711 194.425 46.0764C194.721 45.5818 194.892 45.0264 194.923 44.4557V28.4274Z" fill="#3A5A40"/>
<path opacity="0.5" d="M194.923 28.4274C194.892 27.8567 194.721 27.3013 194.425 26.8066C194.128 26.312 193.715 25.8922 193.218 25.5816L191.836 24.8044C191.307 24.5491 190.724 24.4162 190.133 24.4162C189.542 24.4162 188.96 24.5491 188.431 24.8044L156.319 42.7176C155.823 43.0289 155.41 43.4489 155.113 43.9434C154.817 44.4379 154.646 44.993 154.614 45.5634V61.5917C154.646 62.162 154.818 62.7169 155.114 63.2113C155.41 63.7057 155.823 64.1258 156.319 64.4375L157.707 65.2086C158.235 65.4681 158.818 65.6034 159.41 65.6034C160.002 65.6034 160.585 65.4681 161.112 65.2086L193.218 47.3015C193.715 46.9909 194.128 46.5711 194.425 46.0764C194.721 45.5818 194.892 45.0264 194.923 44.4557V28.4274Z" fill="white"/>
<path opacity="0.2" d="M154.614 61.5917C154.646 62.162 154.818 62.7169 155.114 63.2113C155.41 63.7057 155.823 64.1258 156.319 64.4375L157.707 65.2086C158.187 65.4419 158.712 65.5745 159.249 65.5977C159.786 65.6209 160.321 65.5342 160.82 65.3432C160.015 65.637 159.407 65.2025 159.407 64.26V48.2317C159.427 47.6587 159.6 47.1003 159.907 46.6099L155.114 43.9416C154.806 44.4316 154.633 44.9902 154.614 45.5634V61.5917Z" fill="black"/>
<path opacity="0.3" d="M194.866 27.9623C194.67 27.2646 194.01 27.0381 193.224 27.4788L161.112 45.3859C160.607 45.6852 160.191 46.1073 159.907 46.6099L155.121 43.9416C155.404 43.4405 155.817 43.0189 156.319 42.7176L188.425 24.8105C188.952 24.5509 189.535 24.4156 190.127 24.4156C190.719 24.4156 191.302 24.5509 191.829 24.8105L193.224 25.5816C193.65 25.8506 194.016 26.2003 194.298 26.6095C194.58 27.0187 194.773 27.4789 194.866 27.9623Z" fill="white"/>
<path d="M159.413 53.4154L154.626 50.747L148.857 56.1082C148.77 56.1925 148.704 56.2948 148.664 56.4072C148.625 56.5197 148.612 56.6395 148.627 56.7574C148.642 56.8754 148.685 56.9884 148.752 57.088C148.82 57.1876 148.91 57.2711 149.015 57.3322L153.726 59.976C153.921 60.0745 154.14 60.119 154.36 60.1045L159.432 59.1682V53.4154H159.413Z" fill="#3A5A40"/>
<path opacity="0.5" d="M159.413 53.4154L154.626 50.747L148.857 56.1082C148.77 56.1925 148.704 56.2948 148.664 56.4072C148.625 56.5197 148.612 56.6395 148.627 56.7574C148.642 56.8754 148.685 56.9884 148.752 57.088C148.82 57.1876 148.91 57.2711 149.015 57.3322L153.726 59.976C153.921 60.0745 154.14 60.119 154.36 60.1045L159.432 59.1682V53.4154H159.413Z" fill="white"/>
<path opacity="0.3" d="M153.726 59.976L151.19 58.5745L150.892 58.3848L149.535 57.6259L149.37 57.528L149.009 57.326C148.903 57.2649 148.814 57.1814 148.746 57.0818C148.679 56.9823 148.636 56.8692 148.621 56.7513C148.606 56.6333 148.618 56.5136 148.658 56.4011C148.698 56.2886 148.764 56.1863 148.85 56.102L154.62 50.7409L159.413 53.4153L153.644 58.752C153.552 58.8306 153.48 58.9283 153.434 59.0377C153.387 59.1471 153.367 59.2654 153.375 59.3834C153.383 59.5015 153.419 59.6162 153.479 59.7189C153.54 59.8216 153.625 59.9095 153.726 59.976Z" fill="white"/>
<path d="M168.79 48.4888C168.127 48.9047 167.576 49.4656 167.18 50.126C166.785 50.7864 166.557 51.5276 166.514 52.2893C166.514 53.6846 167.534 54.2538 168.79 53.5561C169.451 53.1399 170.002 52.5787 170.396 51.9183C170.791 51.2578 171.018 50.5168 171.06 49.7556C171.06 48.348 170.045 47.7911 168.79 48.4888Z" fill="white"/>
<path d="M177.165 43.8131C176.503 44.2293 175.953 44.7905 175.558 45.4509C175.164 46.1113 174.937 46.8523 174.895 47.6136C174.895 49.0089 175.91 49.5781 177.165 48.8743C177.826 48.4587 178.376 47.8985 178.77 47.2392C179.164 46.5799 179.392 45.8401 179.435 45.0799C179.422 43.6784 178.42 43.1093 177.165 43.8131Z" fill="white"/>
<path d="M185.54 39.1313C184.88 39.5486 184.33 40.11 183.936 40.7702C183.541 41.4304 183.313 42.1709 183.27 42.9318C183.27 44.3333 184.285 44.8963 185.54 44.1986C186.203 43.7821 186.755 43.2202 187.151 42.5586C187.546 41.8971 187.774 41.1547 187.816 40.392C187.816 39.0027 186.795 38.4336 185.54 39.1313Z" fill="white"/>
<path d="M256.732 59.8475L254.431 55.692L256.282 50.5328V47.3565L250.614 50.5145V53.6724L253.048 57.7483C253.089 57.8092 253.146 57.858 253.213 57.8891L256.732 59.8475Z" fill="#3A5A40"/>
<path opacity="0.2" d="M256.732 59.8475L254.431 55.692L256.282 50.5328V47.3565L250.614 50.5145V53.6724L253.048 57.7483C253.089 57.8092 253.146 57.858 253.213 57.8891L256.732 59.8475Z" fill="black"/>
<path d="M273.945 26.7938C273.914 26.2248 273.743 25.6709 273.448 25.1774C273.153 24.6839 272.741 24.2648 272.246 23.9541L270.864 23.183C270.338 22.9236 269.755 22.7883 269.165 22.7883C268.574 22.7883 267.992 22.9236 267.466 23.183L235.43 41.0473C234.937 41.3618 234.527 41.7826 234.232 42.2766C233.937 42.7705 233.765 43.324 233.73 43.8931V59.8847C233.762 60.4537 233.932 61.0076 234.227 61.5011C234.523 61.9946 234.935 62.4137 235.43 62.7243L236.812 63.4955C237.339 63.7498 237.921 63.8821 238.511 63.8821C239.101 63.8821 239.682 63.7498 240.21 63.4955L254.158 55.6619L256.592 59.7255C256.628 59.7799 256.678 59.8237 256.737 59.852C256.797 59.8802 256.863 59.8918 256.929 59.8854C256.995 59.8791 257.058 59.855 257.111 59.8159C257.163 59.7768 257.203 59.7243 257.226 59.6643L259.8 52.5101L272.214 45.6251C272.709 45.3144 273.121 44.8953 273.416 44.4018C273.712 43.9083 273.882 43.3545 273.913 42.7854L273.945 26.7938Z" fill="#3A5A40"/>
<path d="M243.329 46.9894L268.943 32.7114C269.704 32.2891 270.319 32.589 270.319 33.3846C270.284 33.8294 270.142 34.2601 269.903 34.6418C269.664 35.0235 269.335 35.3455 268.943 35.5817L243.329 49.8596C242.575 50.2819 241.96 49.982 241.96 49.1864C241.994 48.7423 242.136 48.3122 242.374 47.9306C242.611 47.549 242.939 47.2266 243.329 46.9894Z" fill="white"/>
<path d="M243.329 53.348L268.943 39.0762C269.704 38.6539 270.319 38.9538 270.319 39.7433C270.285 40.1891 270.143 40.621 269.904 41.0039C269.665 41.3867 269.336 41.7097 268.943 41.9465L243.329 56.2183C242.575 56.6467 241.96 56.3407 241.96 55.5512C241.993 55.1061 242.134 54.6747 242.372 54.292C242.61 53.9092 242.938 53.5859 243.329 53.348Z" fill="white"/>
<path opacity="0.2" d="M233.73 59.8842C233.762 60.4533 233.932 61.0071 234.227 61.5006C234.523 61.9941 234.935 62.4132 235.43 62.7239L236.812 63.495C237.29 63.7274 237.815 63.8596 238.35 63.8828C238.885 63.906 239.42 63.8197 239.918 63.6296C239.119 63.9173 238.511 63.4828 238.511 62.5464V46.5548C238.531 45.9845 238.701 45.4286 239.005 44.9392L234.225 42.2708C233.921 42.7625 233.751 43.3204 233.73 43.8926V59.8842Z" fill="black"/>
<path opacity="0.2" d="M273.888 26.316C273.691 25.6183 273.032 25.398 272.246 25.8325L240.21 43.7029C239.706 44.0017 239.292 44.424 239.012 44.9269L234.231 42.2647C234.516 41.7645 234.928 41.3431 235.43 41.0407L267.459 23.1703C267.988 22.915 268.571 22.7821 269.161 22.7821C269.752 22.7821 270.335 22.915 270.864 23.1703L272.246 23.9414C272.673 24.2084 273.038 24.5568 273.321 24.9651C273.603 25.3734 273.796 25.8331 273.888 26.316Z" fill="white"/>
</svg>
